<svg width="1248" height="196" viewBox="0 0 1248 196" fill="none" xmlns="http://www.w3.org/2000/svg">
<path d="M85.5002 161.155C131.52 161.155 168.827 135.415 168.827 103.664C168.827 71.9127 131.52 46.1733 85.5002 46.1733C39.4803 46.1733 2.17383 71.9127 2.17383 103.664C2.17383 135.415 39.4803 161.155 85.5002 161.155Z" stroke="#231F20" stroke-width="4" stroke-miterlimit="10"/>
<path d="M98.6008 159.223C139.588 154.757 170.346 128.494 167.301 100.563C164.256 72.6316 128.561 53.6092 87.5738 58.075C46.5866 62.5409 15.8283 88.8038 18.8734 116.735C21.9184 144.666 57.6136 163.689 98.6008 159.223Z" stroke="#231F20" stroke-width="4" stroke-miterlimit="10"/>
<path d="M111.135 156.621C146.906 147.943 171.228 121.643 165.459 97.8774C159.691 74.1122 126.016 61.8816 90.2447 70.5596C54.4735 79.2375 30.1515 105.538 35.9201 129.303C41.6887 153.068 75.3634 165.299 111.135 156.621Z" stroke="#231F20" stroke-width="4" stroke-miterlimit="10"/>
<path d="M122.575 153.578C153.003 141.152 171.267 115.41 163.37 96.0826C155.472 76.755 124.403 71.1603 93.9756 83.5865C63.5479 96.0127 45.2836 121.754 53.1811 141.082C61.0787 160.409 92.1475 166.004 122.575 153.578Z" stroke="#231F20" stroke-width="4" stroke-miterlimit="10"/>
<path d="M132.577 150.414C157.686 134.814 170.564 110.139 161.34 95.3017C152.116 80.464 124.284 81.0822 99.1748 96.6824C74.0658 112.283 61.1884 136.957 70.4123 151.795C79.6361 166.633 107.468 166.015 132.577 150.414Z" stroke="#231F20" stroke-width="4" stroke-miterlimit="10"/>
<path d="M141.1 147.831C161.11 129.571 169.436 106.12 159.696 95.4523C149.955 84.7847 125.838 90.9399 105.827 109.2C85.8169 127.461 77.4912 150.912 87.2315 161.579C96.9717 172.247 121.089 166.092 141.1 147.831Z" stroke="#231F20" stroke-width="4" stroke-miterlimit="10"/>
<path d="M148.684 146.471C163.916 125.802 168.375 103.235 158.642 96.067C148.91 88.899 128.672 99.8441 113.44 120.514C98.2083 141.183 93.75 163.75 103.482 170.918C113.215 178.086 133.452 167.141 148.684 146.471Z" stroke="#231F20" stroke-width="4" stroke-miterlimit="10"/>
<path d="M156.238 146.61C167.004 123.424 167.858 100.973 158.146 96.4663C148.433 91.9593 131.832 107.102 121.066 130.289C110.3 153.476 109.446 175.926 119.159 180.433C128.871 184.94 145.472 169.797 156.238 146.61Z" stroke="#231F20" stroke-width="4" stroke-miterlimit="10"/>
<path d="M164.653 148.011C171.16 121.958 168.192 98.7809 158.023 96.2425C147.855 93.7041 134.336 112.766 127.829 138.819C121.322 164.871 124.29 188.049 134.459 190.587C144.628 193.125 158.146 174.063 164.653 148.011Z" stroke="#231F20" stroke-width="4" stroke-miterlimit="10"/>
<path d="M216.1 165V67.5H244.9L273.25 145.35L301.6 67.5H330.4V165H314.05V77.7L283.3 165H263.2L232.45 77.7V165H216.1ZM386.518 166.5C362.518 166.5 350.068 153.6 342.118 138L356.218 129.6C363.118 143.7 370.768 153.45 386.518 153.45C400.318 153.45 410.368 147.6 410.368 137.4C410.368 127.05 395.968 124.05 381.418 119.85C363.418 114.75 344.518 108.6 344.518 91.95C344.518 75.9 359.218 66 380.668 66C403.918 66 416.368 78.3 423.418 90.3L409.768 98.4C403.468 87.75 396.268 79.2 380.068 79.2C369.268 79.2 362.368 83.25 362.368 92.25C362.368 100.65 374.068 103.2 386.668 106.8C406.018 112.2 428.368 118.65 428.368 136.5C428.368 154.05 411.418 166.5 386.518 166.5ZM440.01 165V67.5L456.36 68.25V165H440.01ZM519.215 166.5C489.365 166.5 466.565 145.35 466.565 116.4C466.565 87 489.215 66 518.915 66C546.515 66 558.515 79.8 569.315 98.85L553.115 104.55C544.415 88.2 536.315 79.2 518.615 79.2C500.015 79.2 485.015 94.2 485.015 116.1C485.015 138 500.615 153.45 519.215 153.45C538.715 153.45 544.565 144.15 553.715 127.2L570.215 131.7C559.865 151.65 547.715 166.5 519.215 166.5ZM626.289 166.5C602.289 166.5 589.839 153.6 581.889 138L595.989 129.6C602.889 143.7 610.539 153.45 626.289 153.45C640.089 153.45 650.139 147.6 650.139 137.4C650.139 127.05 635.739 124.05 621.189 119.85C603.189 114.75 584.289 108.6 584.289 91.95C584.289 75.9 598.989 66 620.439 66C643.689 66 656.139 78.3 663.189 90.3L649.539 98.4C643.239 87.75 636.039 79.2 619.839 79.2C609.039 79.2 602.139 83.25 602.139 92.25C602.139 100.65 613.839 103.2 626.439 106.8C645.789 112.2 668.139 118.65 668.139 136.5C668.139 154.05 651.189 166.5 626.289 166.5Z" fill="black"/>
<path d="M699.4 165V67.5H747.7C762.85 67.5 778.3 77.1 778.3 95.55C778.3 114 762.85 122.25 747.7 122.25H712.45V165H699.4ZM745.15 112.35C756.4 112.35 764.95 108.9 764.95 95.55C764.95 82.2 756.4 77.55 745.15 77.55H712.45V112.35H745.15ZM789.089 64.65C789.089 63.75 789.839 63.15 790.739 63.15L799.139 63.6C799.889 63.6 800.489 64.2 800.489 65.1L801.089 133.8C801.089 112.2 809.339 88.5 830.939 88.5C851.039 88.5 859.589 101.4 859.589 119.7V165H846.539V120.45C846.539 116.7 846.539 97.65 828.539 97.65C804.839 97.65 802.139 127.65 802.139 165H789.089V64.65ZM892.103 166.5C878.753 166.5 867.353 158.7 867.353 147C867.353 125.25 903.203 116.85 920.453 112.05C922.253 111.6 924.803 110.25 924.053 106.95C922.403 99.9 915.953 96.9 905.753 96.9C891.803 96.9 885.803 103.2 882.953 110.4C882.653 111.15 881.753 111.45 881.003 111.15L872.303 108C871.403 107.7 870.953 106.65 871.403 105.9C875.903 97.8 885.953 88.5 905.453 88.5C927.203 88.5 936.953 99.15 937.103 109.05L938.003 165H925.553L924.353 132C924.353 140.25 916.403 166.5 892.103 166.5ZM893.003 157.5C905.303 157.5 924.353 142.05 924.353 118.05C919.853 121.05 880.403 126.75 880.403 146.7C880.403 154.35 887.003 157.5 893.003 157.5ZM948.839 92.85C948.839 92.1 949.289 91.5 950.039 91.35L957.839 90.3C958.739 90.15 959.639 90.9 959.639 91.8L961.139 131.85C961.589 115.5 965.489 88.5 984.689 88.5C994.889 88.5 1005.24 97.95 1008.54 111.9C1008.69 112.8 1008.09 113.7 1007.19 113.85L998.339 115.35C997.439 115.5 996.689 115.05 996.539 114C994.589 103.2 987.839 97.8 981.689 97.8C966.839 97.8 962.039 124.5 961.889 165H948.839V92.85ZM1017.87 92.85C1017.87 92.1 1018.47 91.5 1019.22 91.35L1027.47 90.3C1028.37 90.15 1029.27 90.9 1029.27 91.8L1030.77 131.85C1030.77 110.4 1037.37 88.65 1060.02 88.65C1075.47 88.65 1088.22 102.6 1088.37 120C1090.62 103.05 1098.42 88.65 1116.87 88.65C1132.47 88.65 1145.22 102.75 1145.22 120.3V165H1132.17V122.7C1132.17 110.4 1125.57 98.1 1111.62 98.1C1094.52 98.1 1088.37 122.85 1088.37 143.7V165H1075.32V122.7C1075.32 110.4 1068.72 98.1 1054.77 98.1C1030.77 98.1 1031.07 146.85 1030.92 165H1017.87V92.85ZM1179.34 166.5C1165.99 166.5 1154.59 158.7 1154.59 147C1154.59 125.25 1190.44 116.85 1207.69 112.05C1209.49 111.6 1212.04 110.25 1211.29 106.95C1209.64 99.9 1203.19 96.9 1192.99 96.9C1179.04 96.9 1173.04 103.2 1170.19 110.4C1169.89 111.15 1168.99 111.45 1168.24 111.15L1159.54 108C1158.64 107.7 1158.19 106.65 1158.64 105.9C1163.14 97.8 1173.19 88.5 1192.69 88.5C1214.44 88.5 1224.19 99.15 1224.34 109.05L1225.24 165H1212.79L1211.59 132C1211.59 140.25 1203.64 166.5 1179.34 166.5ZM1180.24 157.5C1192.54 157.5 1211.59 142.05 1211.59 118.05C1207.09 121.05 1167.64 126.75 1167.64 146.7C1167.64 154.35 1174.24 157.5 1180.24 157.5Z" fill="black"/>
</svg>
